<svg xmlns="http://www.w3.org/2000/svg" xmlns:xlink="http://www.w3.org/1999/xlink" version="1.1" id="Layer_1" x="0px" y="0px" width="100%" viewBox="0 0 288 288" enable-background="new 0 0 288 288" xml:space="preserve">
<path fill="#7b1fa2" opacity="1.000000" stroke="none" d=" M193.019287,47.871788   C225.811157,65.184196 244.331116,92.279709 248.947739,128.385406   C250.689590,142.007980 250.272736,156.020081 245.897705,169.442596   C245.195267,171.597717 245.167770,173.728531 245.487122,175.853500   C247.126724,186.763962 245.149307,197.108459 240.177597,206.789871   C238.435699,210.181885 238.669510,212.367004 241.133301,215.146439   C247.977921,222.867966 254.507324,230.867828 261.267700,238.665482   C265.601196,243.663834 267.604492,249.224808 265.716766,255.723999   C262.788544,265.805573 250.302200,268.758362 242.380981,260.843292   C235.920486,254.387802 230.039398,247.313980 224.272369,240.213028   C217.551498,231.937592 217.871155,232.875748 207.551529,234.256592   C192.737183,236.238846 179.328506,242.806076 164.821915,245.539429   C117.678009,254.422348 70.292946,230.256165 50.948990,186.518311   C33.409374,146.860138 37.491119,109.028175 64.338600,74.799782   C81.016525,53.536762 103.564209,41.217712 130.589905,37.611378   C152.312119,34.712742 173.004868,38.078091 193.019287,47.871788  M138.665787,182.765656   C139.246582,178.987503 137.613846,177.128357 133.925949,175.978790   C128.309006,174.227921 122.738808,171.779953 120.839493,165.468277   C118.033127,156.142349 111.514000,150.808624 102.809181,147.536926   C98.913887,146.072876 94.997345,144.661865 91.565552,142.197968   C85.677597,137.970612 83.599701,131.913193 85.792610,125.170311   C89.781776,112.904236 100.935966,106.620148 113.359367,109.640816   C115.298119,110.112206 117.231529,110.606224 119.174408,111.059822   C125.785530,112.603310 131.020233,109.381424 132.761734,102.788330   C133.536316,99.855850 133.593170,96.881081 133.720581,93.879761   C134.214981,82.233086 137.312454,77.215202 145.629425,75.762482   C159.266815,73.380432 166.557785,64.551086 170.906586,52.278149   C171.970612,49.275318 171.045151,48.054195 168.183014,47.271145   C162.221527,45.640137 156.157211,44.564487 150.016113,44.377808   C121.748634,43.518547 97.594917,53.126019 77.446907,73.028374   C65.077019,85.247444 56.527996,99.666801 51.683109,116.295250   C51.077122,118.375084 49.817440,120.603752 51.525421,122.955032   C60.507771,135.320450 68.682831,148.281616 83.314575,155.311066   C91.350128,159.171524 94.996872,166.391205 94.206963,175.539093   C94.064377,177.190353 94.269783,178.868942 94.254089,180.534348   C94.203186,185.934219 96.546944,190.160919 100.646362,193.484497   C102.973373,195.371109 105.314697,197.261490 107.796410,198.932068   C117.294212,205.325531 119.636536,214.543854 118.132332,225.177765   C116.658142,235.599457 116.549110,235.583969 127.168808,237.742157   C127.332031,237.775314 127.504234,237.790604 127.654991,237.854782   C130.034683,238.867569 131.335144,237.682800 132.461166,235.706375   C136.500366,228.616714 140.545792,221.528107 144.755966,214.539780   C146.127274,212.263611 146.098740,210.443619 144.839645,208.101913   C140.753128,200.501740 138.725327,192.316193 138.665787,182.765656  M170.365356,133.631149   C199.107742,123.748390 222.425705,131.110153 240.749908,156.919205   C243.124451,138.946976 242.527740,122.548897 235.609268,106.826881   C234.174927,103.567398 230.339828,103.201378 227.064346,105.644516   C223.089355,108.609428 221.121735,112.828636 220.462387,117.575302   C219.903900,121.596008 217.988419,121.816269 214.977997,120.149452   C212.631836,118.850426 212.583542,116.753998 213.048279,114.502243   C215.007950,105.007408 219.355362,97.646095 230.139206,96.255791   C229.913849,95.113228 229.924561,94.417320 229.641724,93.874321   C228.797211,92.253036 227.930634,90.628838 226.908676,89.116592   C216.330963,73.464188 202.852203,61.177231 185.497604,53.340965   C179.580170,50.669006 179.501968,50.518658 177.519684,56.609715   C172.953247,70.641266 164.441895,80.279030 149.333679,83.245277   C143.455917,84.399277 141.732956,87.035324 141.325439,93.005585   C141.065079,96.820084 140.841797,100.652283 140.274429,104.427330   C139.251556,111.232971 135.573868,115.936600 128.955246,118.386528   C124.080437,120.190971 119.457558,119.109726 114.759491,117.926804   C103.824989,115.173630 100.611137,116.482773 94.303146,125.675232   C91.850113,129.249969 92.277740,132.112030 95.434364,134.848450   C98.652138,137.637878 102.503517,139.209366 106.427811,140.622467   C115.665665,143.948898 122.457108,149.870346 126.439522,158.963058   C128.067993,162.681198 130.372864,165.828217 134.369461,167.547073   C138.230942,169.207809 140.354080,168.562469 141.795700,164.261337   C146.549774,150.077209 155.996582,140.018387 170.365356,133.631149  M201.620651,228.107666   C209.093399,226.800201 215.427185,222.987823 220.916534,218.132965   C233.594543,206.920395 240.644257,193.067902 238.105957,175.690765   C234.875488,153.575180 213.729752,135.630600 189.184952,137.080139   C162.988419,138.627213 141.964203,164.798538 146.683990,190.598373   C150.833450,213.280655 176.775299,235.182861 201.620651,228.107666  M87.899605,188.096390   C86.543571,183.386185 86.531059,178.552872 86.801552,173.736038   C87.040794,169.475784 85.333649,166.323151 81.963371,163.954483   C79.787552,162.425293 77.644318,160.799637 75.303177,159.564697   C66.432907,154.885803 59.246185,148.427429 53.768490,140.017136   C52.451885,137.995667 50.797092,136.194458 49.006432,133.922180   C43.779987,175.304733 74.797409,220.105499 107.887825,230.874512   C113.487579,222.060913 112.441582,213.687851 104.754288,206.828217   C102.525093,204.839035 100.162468,202.955109 97.667717,201.317352   C93.007195,198.257782 89.981270,194.054398 87.899605,188.096390  M234.968338,220.665970   C233.533829,218.873215 232.237839,217.945343 230.218552,220.251328   C228.277512,222.467926 225.880005,224.284805 223.481323,226.460327   C225.755707,229.121201 227.529846,231.281616 229.393494,233.361847   C235.942200,240.671585 241.766602,248.628204 248.934418,255.380890   C251.169785,257.486816 253.683777,258.619354 256.408661,256.044373   C258.878510,253.710388 259.664764,251.044876 257.748352,247.999954   C257.045074,246.882553 256.190002,245.852524 255.338196,244.838043   C248.710037,236.944061 242.065781,229.063614 234.968338,220.665970  M146.903214,239.675446   C156.084320,239.755219 164.912491,238.064774 174.855362,234.203369   C165.224411,230.938766 158.749390,225.057877 152.203842,219.277634   C148.881821,222.293457 147.547318,225.959106 145.538330,229.158752   C143.550385,232.324875 141.742065,235.603790 139.364777,239.672104   C142.157669,239.672104 144.111313,239.672104 146.903214,239.675446  z"/>
<path fill="#7b1fa2" opacity="1.000000" stroke="none" d=" M164.692596,205.254364   C148.329025,183.522842 158.303040,154.122009 184.140854,148.391113   C203.990036,143.988525 221.713486,154.397369 226.150940,170.652115   C230.625244,187.041794 224.840744,205.476151 210.116592,213.632477   C194.828751,222.101028 177.360245,219.055267 164.692596,205.254364  M216.454727,169.150803   C207.839584,156.110855 193.097076,151.787643 179.951019,158.446152   C168.679062,164.155441 162.449234,177.208359 165.421463,188.888885   C168.299469,200.199112 181.478775,211.014725 192.626221,210.466736   C210.857742,209.570557 226.792999,188.581055 216.454727,169.150803  z"/>
</svg>