<svg xmlns="http://www.w3.org/2000/svg" xmlns:xlink="http://www.w3.org/1999/xlink" version="1.1" id="Layer_1" x="0px" y="0px" width="100%" viewBox="0 0 300 300" enable-background="new 0 0 300 300" xml:space="preserve">
<path fill="#FFFFFF" opacity="1.000000" stroke="none" d=" M207.000000,301.000000   C138.000015,301.000000 69.500023,301.000000 1.000028,301.000000   C1.000018,201.000031 1.000018,101.000061 1.000009,1.000068   C100.999947,1.000045 200.999893,1.000045 300.999878,1.000023   C300.999939,100.999939 300.999939,200.999878 300.999969,300.999908   C269.833344,301.000000 238.666672,301.000000 207.000000,301.000000  M290.622406,265.892029   C296.928436,263.666901 298.512909,259.668823 295.294861,254.053772   C281.324585,229.677521 267.268524,205.349976 253.397644,180.917328   C238.288574,154.303665 223.381302,127.575500 208.320892,100.934090   C202.267105,90.225113 196.072693,79.595047 189.875778,68.967850   C187.360703,64.654701 183.464813,61.944244 178.724609,64.228729   C175.562668,65.752579 172.708771,68.872742 170.845306,71.959610   C164.494446,82.479965 158.676468,93.321045 152.555923,103.982773   C151.875351,105.168320 150.730347,106.438774 149.508881,106.904602   C142.231491,109.679962 134.909607,112.358505 127.499008,114.748070   C126.018387,115.225502 123.606224,114.898720 122.446007,113.943672   C115.394905,108.139351 108.596985,102.028358 101.685295,96.053574   C94.035156,89.440453 85.660431,87.172058 75.831642,91.079941   C73.802841,91.886574 70.794830,91.188873 68.565971,90.331894   C64.090637,88.611198 59.950283,86.018379 55.473541,84.302391   C48.590801,81.664154 41.504395,83.906204 37.664246,90.162750   C30.620754,101.638336 23.772047,113.240974 17.144087,124.961395   C12.938679,132.397949 13.963734,140.658295 20.304455,146.377197   C24.086695,149.788528 29.101732,151.833023 32.757973,154.012360   C35.206242,160.708984 37.551258,167.123184 40.168671,174.282471   C39.607319,176.196869 38.802414,179.242264 37.822319,182.230225   C34.335236,192.861130 33.318432,204.262207 26.051359,213.681000   C19.470947,222.209808 13.868463,231.509827 8.079180,240.625015   C5.352571,244.918030 3.918679,249.697006 5.581967,254.886932   C7.300993,260.250763 11.277826,263.080780 16.558838,263.847382   C22.502481,264.710175 27.152891,262.310608 30.684010,257.362122   C38.502632,246.405151 46.750111,235.743362 54.266518,224.586487   C57.633553,219.588684 60.231945,213.880356 62.148861,208.149826   C64.277397,201.786652 65.230820,195.030396 66.828499,187.849152   C69.990089,189.265015 72.602798,190.661774 75.368034,191.617035   C78.969444,192.861160 79.680481,195.110535 78.832458,198.580276   C77.770355,202.925934 76.954056,207.340317 76.227333,211.757233   C75.124306,218.461197 72.600464,225.448624 73.629173,231.841080   C74.664474,238.274475 72.800529,242.582169 69.595985,247.237793   C68.372742,249.014954 67.236923,250.869431 66.239357,252.781586   C63.014423,258.963287 66.044281,264.754456 73.979042,266.032440   C126.123512,266.038422 178.268005,266.062958 230.412460,266.040955   C250.233047,266.032593 270.053619,265.917297 290.622406,265.892029  M117.263367,40.028500   C106.158409,36.024620 96.419807,38.055996 88.105080,46.563438   C78.226089,56.671387 78.626266,74.091705 89.005852,84.335426   C98.443390,93.649422 116.863594,93.514145 126.234795,84.062004   C140.056381,70.121056 136.217331,49.695518 117.263367,40.028500  z"/>
<path fill="#7b1fa2" opacity="1.000000" stroke="none" d=" M73.055153,265.936401   C66.044281,264.754456 63.014423,258.963287 66.239357,252.781586   C67.236923,250.869431 68.372742,249.014954 69.595985,247.237793   C72.800529,242.582169 74.664474,238.274475 73.629173,231.841080   C72.600464,225.448624 75.124306,218.461197 76.227333,211.757233   C76.954056,207.340317 77.770355,202.925934 78.832458,198.580276   C79.680481,195.110535 78.969444,192.861160 75.368034,191.617035   C72.602798,190.661774 69.990089,189.265015 66.828499,187.849152   C65.230820,195.030396 64.277397,201.786652 62.148861,208.149826   C60.231945,213.880356 57.633553,219.588684 54.266518,224.586487   C46.750111,235.743362 38.502632,246.405151 30.684010,257.362122   C27.152891,262.310608 22.502481,264.710175 16.558838,263.847382   C11.277826,263.080780 7.300993,260.250763 5.581967,254.886932   C3.918679,249.697006 5.352571,244.918030 8.079180,240.625015   C13.868463,231.509827 19.470947,222.209808 26.051359,213.681000   C33.318432,204.262207 34.335236,192.861130 37.822319,182.230225   C38.802414,179.242264 39.607319,176.196869 40.168671,174.282471   C37.551258,167.123184 35.206242,160.708984 32.757973,154.012360   C29.101732,151.833023 24.086695,149.788528 20.304455,146.377197   C13.963734,140.658295 12.938679,132.397949 17.144087,124.961395   C23.772047,113.240974 30.620754,101.638336 37.664246,90.162750   C41.504395,83.906204 48.590801,81.664154 55.473541,84.302391   C59.950283,86.018379 64.090637,88.611198 68.565971,90.331894   C70.794830,91.188873 73.802841,91.886574 75.831642,91.079941   C85.660431,87.172058 94.035156,89.440453 101.685295,96.053574   C108.596985,102.028358 115.394905,108.139351 122.446007,113.943672   C123.606224,114.898720 126.018387,115.225502 127.499008,114.748070   C134.909607,112.358505 142.231491,109.679962 149.508881,106.904602   C150.730347,106.438774 151.875351,105.168320 152.555923,103.982773   C158.676468,93.321045 164.494446,82.479965 170.845306,71.959610   C172.708771,68.872742 175.562668,65.752579 178.724609,64.228729   C183.464813,61.944244 187.360703,64.654701 189.875778,68.967850   C196.072693,79.595047 202.267105,90.225113 208.320892,100.934090   C223.381302,127.575500 238.288574,154.303665 253.397644,180.917328   C267.268524,205.349976 281.324585,229.677521 295.294861,254.053772   C298.512909,259.668823 296.928436,263.666901 289.955963,265.594513   C288.470520,265.199677 287.651581,265.017365 286.832550,265.017212   C216.969849,265.003265 147.107162,264.997986 77.244492,265.041473   C75.847862,265.042328 74.451591,265.625122 73.055153,265.936401  M207.660690,112.837303   C200.194580,99.696701 192.739197,86.549995 185.255432,73.419456   C183.189499,69.794685 179.908844,69.742279 177.601288,73.630692   C170.659348,85.328423 163.929001,97.151733 157.137436,108.889198   C158.107513,110.187035 158.918808,111.218414 159.672913,112.290039   C164.789810,119.561462 163.382004,126.785461 155.861908,131.307755   C153.155792,132.935104 150.393555,134.581253 147.457062,135.688965   C142.126877,137.699631 138.855789,141.536865 136.159668,146.349930   C128.608124,159.830750 120.577347,173.049469 113.283646,186.665146   C110.441879,191.970093 108.626480,197.947266 107.118279,203.817276   C104.435654,214.258194 102.642136,224.929321 99.902496,235.353226   C97.964958,242.725235 91.903130,246.754456 85.552689,245.793900   C83.471481,245.479080 81.461220,244.695297 79.196594,244.064117   C77.416794,247.039459 75.699554,249.858871 74.032722,252.707779   C70.892952,258.074188 71.851776,259.930267 77.924446,259.932190   C146.881912,259.954102 215.839371,259.953705 284.796814,259.900757   C286.344299,259.899567 287.891266,259.211578 289.438477,258.843964   C288.952118,257.358856 288.702148,255.739029 287.944092,254.408752   C275.766754,233.039886 263.441528,211.755005 251.318756,190.355377   C236.821655,164.764587 222.485046,139.082901 207.660690,112.837303  M83.078644,212.653305   C82.025146,219.191513 80.565498,225.697845 80.048820,232.278198   C79.647697,237.386826 83.743233,240.195068 88.617264,238.988861   C93.156342,237.865540 94.129074,234.104599 94.923294,230.290604   C97.627258,217.305618 100.142227,204.279434 103.006454,191.330276   C105.039421,182.139267 102.477516,176.350784 93.850166,172.389908   C87.658028,169.547058 81.436081,166.763290 75.164017,164.102676   C71.750351,162.654633 71.086510,160.500107 72.850357,157.403992   C79.432381,145.850357 86.087212,134.337463 92.569084,122.727974   C94.302376,119.623543 96.086784,119.767387 98.494415,121.726402   C102.869545,125.286324 107.305000,128.772018 111.689339,132.320740   C116.105476,135.895203 120.476593,140.095078 126.784874,137.444809   C134.901596,134.034790 142.899475,130.319199 150.810379,126.452538   C154.168488,124.811172 157.250900,122.449364 155.391800,117.832626   C153.898758,114.124962 150.702362,113.110260 145.720383,114.934952   C139.950211,117.048332 134.219711,119.281219 128.541580,121.630402   C125.219444,123.004829 122.526794,123.250488 119.525368,120.444756   C113.586250,114.892921 106.961197,110.067726 101.096603,104.444763   C88.569023,92.433350 74.889496,93.179016 66.372055,108.747513   C59.035786,122.157013 50.750629,135.043961 43.209122,148.345703   C37.399677,158.592422 43.396919,169.685013 52.133114,173.866837   C62.168213,178.670395 72.470596,182.914505 82.641861,187.435394   C85.340302,188.634781 87.649559,190.039200 86.825027,193.761414   C85.499451,199.745468 84.405029,205.780746 83.078644,212.653305  M12.835095,245.465576   C10.286899,251.910294 10.557079,252.697784 18.215166,259.422516   C21.133492,256.488373 24.409613,253.758026 26.989038,250.479538   C31.811781,244.349762 36.285938,237.941422 40.801586,231.575546   C45.404964,225.085938 51.063869,219.008682 54.106720,211.836990   C57.603916,203.594482 58.737133,194.348938 60.945042,185.343811   C55.994274,183.029129 51.417286,180.889206 46.336967,178.513962   C45.092606,182.269714 44.111668,185.411285 43.012955,188.511108   C40.201775,196.442352 38.303314,204.890808 34.272652,212.151367   C27.995937,223.457825 20.256796,233.952423 12.835095,245.465576  M88.622772,142.138412   C85.587540,147.733597 82.552307,153.328766 79.567642,158.830734   C90.512726,165.318069 104.260284,165.819595 109.613655,179.996872   C116.849861,167.240128 123.477669,155.555893 130.765839,142.707535   C114.015518,149.241409 107.609749,134.122253 96.433022,129.051575   C93.926849,133.293427 91.489632,137.418564 88.622772,142.138412  M28.958548,118.405518   C27.417408,120.761086 25.794413,123.067871 24.354433,125.483734   C22.227945,129.051361 20.027719,132.586365 21.936220,137.094101   C23.917442,141.773605 27.542257,144.513062 32.251030,145.489487   C36.655563,146.402802 38.644382,142.921280 40.537548,139.718567   C48.958733,125.472206 57.386059,111.229477 66.171822,96.375679   C61.380432,94.231934 56.971310,92.009163 52.374454,90.287697   C49.142281,89.077293 45.942448,89.948486 44.068550,93.013397   C39.058979,101.206978 34.256493,109.527184 28.958548,118.405518  z"/>
<path fill="#7b1fa2" opacity="1.000000" stroke="none" d=" M117.633728,40.149658   C136.217331,49.695518 140.056381,70.121056 126.234795,84.062004   C116.863594,93.514145 98.443390,93.649422 89.005852,84.335426   C78.626266,74.091705 78.226089,56.671387 88.105080,46.563438   C96.419807,38.055996 106.158409,36.024620 117.633728,40.149658  M124.054527,75.365913   C125.041115,72.937599 126.578484,70.583183 126.915916,68.067787   C128.166306,58.746811 123.731415,50.777153 115.524506,46.770908   C107.855820,43.027401 100.742523,44.662674 93.547813,51.823132   C87.812057,57.531578 86.321136,64.860825 89.353035,72.444321   C91.999786,79.064491 99.294548,83.837219 106.447655,84.315552   C113.913467,84.814789 119.176041,81.380745 124.054527,75.365913  z"/>
<path fill="#7b1fa2" opacity="1.000000" stroke="none" d=" M73.517097,265.984436   C74.451591,265.625122 75.847862,265.042328 77.244492,265.041473   C147.107162,264.997986 216.969849,265.003265 286.832550,265.017212   C287.651581,265.017365 288.470520,265.199677 289.581848,265.573853   C270.053619,265.917297 250.233047,266.032593 230.412460,266.040955   C178.268005,266.062958 126.123512,266.038422 73.517097,265.984436  z"/>
<path fill="#fffffe" opacity="1.000000" stroke="none" d=" M207.869812,113.138931   C222.485046,139.082901 236.821655,164.764587 251.318756,190.355377   C263.441528,211.755005 275.766754,233.039886 287.944092,254.408752   C288.702148,255.739029 288.952118,257.358856 289.438477,258.843964   C287.891266,259.211578 286.344299,259.899567 284.796814,259.900757   C215.839371,259.953705 146.881912,259.954102 77.924446,259.932190   C71.851776,259.930267 70.892952,258.074188 74.032722,252.707779   C75.699554,249.858871 77.416794,247.039459 79.196594,244.064117   C81.461220,244.695297 83.471481,245.479080 85.552689,245.793900   C91.903130,246.754456 97.964958,242.725235 99.902496,235.353226   C102.642136,224.929321 104.435654,214.258194 107.118279,203.817276   C108.626480,197.947266 110.441879,191.970093 113.283646,186.665146   C120.577347,173.049469 128.608124,159.830750 136.159668,146.349930   C138.855789,141.536865 142.126877,137.699631 147.457062,135.688965   C150.393555,134.581253 153.155792,132.935104 155.861908,131.307755   C163.382004,126.785461 164.789810,119.561462 159.672913,112.290039   C158.918808,111.218414 158.107513,110.187035 157.137436,108.889198   C163.929001,97.151733 170.659348,85.328423 177.601288,73.630692   C179.908844,69.742279 183.189499,69.794685 185.255432,73.419456   C192.739197,86.549995 200.194580,99.696701 207.869812,113.138931  z"/>
<path fill="#FEFEFE" opacity="1.000000" stroke="none" d=" M83.145790,212.223846   C84.405029,205.780746 85.499451,199.745468 86.825027,193.761414   C87.649559,190.039200 85.340302,188.634781 82.641861,187.435394   C72.470596,182.914505 62.168213,178.670395 52.133114,173.866837   C43.396919,169.685013 37.399677,158.592422 43.209122,148.345703   C50.750629,135.043961 59.035786,122.157013 66.372055,108.747513   C74.889496,93.179016 88.569023,92.433350 101.096603,104.444763   C106.961197,110.067726 113.586250,114.892921 119.525368,120.444756   C122.526794,123.250488 125.219444,123.004829 128.541580,121.630402   C134.219711,119.281219 139.950211,117.048332 145.720383,114.934952   C150.702362,113.110260 153.898758,114.124962 155.391800,117.832626   C157.250900,122.449364 154.168488,124.811172 150.810379,126.452538   C142.899475,130.319199 134.901596,134.034790 126.784874,137.444809   C120.476593,140.095078 116.105476,135.895203 111.689339,132.320740   C107.305000,128.772018 102.869545,125.286324 98.494415,121.726402   C96.086784,119.767387 94.302376,119.623543 92.569084,122.727974   C86.087212,134.337463 79.432381,145.850357 72.850357,157.403992   C71.086510,160.500107 71.750351,162.654633 75.164017,164.102676   C81.436081,166.763290 87.658028,169.547058 93.850166,172.389908   C102.477516,176.350784 105.039421,182.139267 103.006454,191.330276   C100.142227,204.279434 97.627258,217.305618 94.923294,230.290604   C94.129074,234.104599 93.156342,237.865540 88.617264,238.988861   C83.743233,240.195068 79.647697,237.386826 80.048820,232.278198   C80.565498,225.697845 82.025146,219.191513 83.145790,212.223846  z"/>
<path fill="#FEFDFD" opacity="1.000000" stroke="none" d=" M12.986261,245.128326   C20.256796,233.952423 27.995937,223.457825 34.272652,212.151367   C38.303314,204.890808 40.201775,196.442352 43.012955,188.511108   C44.111668,185.411285 45.092606,182.269714 46.336967,178.513962   C51.417286,180.889206 55.994274,183.029129 60.945042,185.343811   C58.737133,194.348938 57.603916,203.594482 54.106720,211.836990   C51.063869,219.008682 45.404964,225.085938 40.801586,231.575546   C36.285938,237.941422 31.811781,244.349762 26.989038,250.479538   C24.409613,253.758026 21.133492,256.488373 18.215166,259.422516   C10.557079,252.697784 10.286899,251.910294 12.986261,245.128326  z"/>
<path fill="#FEFEFD" opacity="1.000000" stroke="none" d=" M88.837601,141.841064   C91.489632,137.418564 93.926849,133.293427 96.433022,129.051575   C107.609749,134.122253 114.015518,149.241409 130.765839,142.707535   C123.477669,155.555893 116.849861,167.240128 109.613655,179.996872   C104.260284,165.819595 90.512726,165.318069 79.567642,158.830734   C82.552307,153.328766 85.587540,147.733597 88.837601,141.841064  z"/>
<path fill="#FEFEFD" opacity="1.000000" stroke="none" d=" M29.165131,118.101288   C34.256493,109.527184 39.058979,101.206978 44.068550,93.013397   C45.942448,89.948486 49.142281,89.077293 52.374454,90.287697   C56.971310,92.009163 61.380432,94.231934 66.171822,96.375679   C57.386059,111.229477 48.958733,125.472206 40.537548,139.718567   C38.644382,142.921280 36.655563,146.402802 32.251030,145.489487   C27.542257,144.513062 23.917442,141.773605 21.936220,137.094101   C20.027719,132.586365 22.227945,129.051361 24.354433,125.483734   C25.794413,123.067871 27.417408,120.761086 29.165131,118.101288  z"/>
<path fill="#FEFEFD" opacity="1.000000" stroke="none" d=" M123.831329,75.660431   C119.176041,81.380745 113.913467,84.814789 106.447655,84.315552   C99.294548,83.837219 91.999786,79.064491 89.353035,72.444321   C86.321136,64.860825 87.812057,57.531578 93.547813,51.823132   C100.742523,44.662674 107.855820,43.027401 115.524506,46.770908   C123.731415,50.777153 128.166306,58.746811 126.915916,68.067787   C126.578484,70.583183 125.041115,72.937599 123.831329,75.660431  z"/>
</svg>