<svg xmlns="http://www.w3.org/2000/svg" xmlns:xlink="http://www.w3.org/1999/xlink" version="1.1" id="Layer_1" x="0px" y="0px" width="100%" viewBox="0 0 300 300" enable-background="new 0 0 300 300" xml:space="preserve">
<path fill="#ffffff" opacity="1.000000" stroke="none" d=" M161.000000,301.000000   C107.333344,301.000000 54.166687,301.000000 1.000021,301.000000   C1.000014,201.000031 1.000014,101.000053 1.000007,1.000062   C100.999962,1.000041 200.999924,1.000041 300.999908,1.000021   C300.999939,100.999939 300.999939,200.999878 300.999969,300.999908   C254.500000,301.000000 208.000000,301.000000 161.000000,301.000000  M148.500031,259.943054   C187.157791,259.962006 225.815903,260.079590 264.473145,259.947449   C278.364349,259.899963 289.207367,250.976212 289.106079,235.710770   C288.807526,190.723099 288.982880,145.732330 288.964264,100.742767   C288.959595,89.390099 279.437408,80.034973 267.946045,80.037155   C249.450272,80.040657 230.954498,80.036507 212.458740,80.016121   C211.027557,80.014542 209.596558,79.859741 208.253784,79.781319   C208.128494,79.073563 208.024216,78.757309 208.023590,78.440834   C208.010071,71.609146 207.584732,64.745468 208.097427,57.952778   C208.996994,46.034679 200.221588,40.224510 190.740570,40.110317   C163.917053,39.787228 137.084579,39.787464 110.261040,40.110161   C100.777100,40.224255 92.024086,46.036350 92.898254,57.951271   C93.428741,65.181870 92.996033,72.483139 92.996033,80.039894   C72.490746,80.039894 52.517731,80.313995 32.558392,79.910851   C24.056131,79.739136 11.791510,89.797173 11.874466,100.242508   C12.233071,145.395752 12.192094,190.554840 11.893785,235.709137   C11.792926,250.976105 22.635241,259.896637 36.525249,259.947388   C73.516335,260.082581 110.508362,259.961060 148.500031,259.943054  z"/>
<path fill="#7b1fa2" opacity="1.000000" stroke="none" d=" M148.000031,259.942322   C110.508362,259.961060 73.516335,260.082581 36.525249,259.947388   C22.635241,259.896637 11.792926,250.976105 11.893785,235.709137   C12.192094,190.554840 12.233071,145.395752 11.874466,100.242508   C11.791510,89.797173 24.056131,79.739136 32.558392,79.910851   C52.517731,80.313995 72.490746,80.039894 92.996033,80.039894   C92.996033,72.483139 93.428741,65.181870 92.898254,57.951271   C92.024086,46.036350 100.777100,40.224255 110.261040,40.110161   C137.084579,39.787464 163.917053,39.787228 190.740570,40.110317   C200.221588,40.224510 208.996994,46.034679 208.097427,57.952778   C207.584732,64.745468 208.010071,71.609146 208.023590,78.440834   C208.024216,78.757309 208.128494,79.073563 208.253784,79.781319   C209.596558,79.859741 211.027557,80.014542 212.458740,80.016121   C230.954498,80.036507 249.450272,80.040657 267.946045,80.037155   C279.437408,80.034973 288.959595,89.390099 288.964264,100.742767   C288.982880,145.732330 288.807526,190.723099 289.106079,235.710770   C289.207367,250.976212 278.364349,259.899963 264.473145,259.947449   C225.815903,260.079590 187.157791,259.962006 148.000031,259.942322  M151.500000,253.014908   C176.157333,253.008606 200.815506,252.898178 225.471252,253.092590   C229.877747,253.127335 231.105118,251.866531 231.092682,247.465576   C230.946869,195.818695 230.999664,144.171249 230.986496,92.523964   C230.986130,91.088181 230.835175,89.652420 230.759018,88.297989   C177.015366,88.297989 123.628944,88.297989 70.215172,88.297989   C70.123108,89.066658 70.015480,89.546089 70.015388,90.025543   C70.005005,142.839066 70.042175,195.652664 69.921692,248.465912   C69.912476,252.508331 71.618538,253.064270 75.028999,253.051315   C100.185684,252.955627 125.342934,253.008713 151.500000,253.014908  M20.003426,142.500000   C19.997948,173.556595 19.984310,204.613174 19.992599,235.669769   C19.994732,243.663956 23.518120,249.627930 31.343744,250.834824   C41.021618,252.327347 50.987396,251.953064 60.936745,252.390091   C61.332134,247.549240 61.922596,243.630829 61.930363,239.711273   C62.005276,201.894928 61.983189,164.078384 61.986439,126.261909   C61.987339,115.766548 61.983536,105.271179 61.975670,94.775818   C61.970596,88.002998 61.965523,88.001984 55.054932,88.001305   C48.557774,88.000671 42.060608,87.996223 35.563461,88.004692   C25.892467,88.017288 20.016489,93.867043 20.006609,103.516609   C19.993645,116.177734 20.003433,128.838867 20.003426,142.500000  M239.018082,204.500000   C239.524765,220.298553 237.845703,236.178787 240.191803,251.828735   C241.116150,251.923050 241.443558,251.985260 241.771027,251.985611   C249.267715,251.993393 256.764404,251.986023 264.261108,251.998825   C274.426270,252.016190 281.015442,245.516129 281.007782,235.397003   C280.997955,222.420059 280.915405,209.443115 280.919067,196.466202   C280.927856,165.392166 280.980286,134.318130 280.989624,103.244087   C280.992401,93.964752 274.989838,88.028267 265.663788,88.006065   C259.166656,87.990601 252.669479,88.000771 246.172333,88.001228   C239.026566,88.001740 239.024384,88.002602 239.023895,95.048325   C239.021423,131.198883 239.020157,167.349442 239.018082,204.500000  M186.408813,49.002041   C160.958008,49.001987 135.507202,48.993904 110.056396,49.007648   C103.847618,49.011002 101.023682,51.790573 100.987343,57.918354   C100.951828,63.906544 101.083679,69.897629 100.937500,75.882446   C100.866295,78.797539 101.724586,80.066589 104.876465,80.058121   C135.317062,79.976242 165.758026,79.988121 196.198746,80.044426   C198.932144,80.049477 200.114960,79.166000 200.058487,76.306625   C199.930405,69.821732 200.112259,63.330822 199.990967,56.845669   C199.899811,51.972088 196.831192,49.131618 191.866379,49.008251   C190.370193,48.971073 188.872299,49.001881 186.408813,49.002041  z"/>
<path fill="#ffffff" opacity="1.000000" stroke="none" d=" M151.000000,253.014954   C125.342934,253.008713 100.185684,252.955627 75.028999,253.051315   C71.618538,253.064270 69.912476,252.508331 69.921692,248.465912   C70.042175,195.652664 70.005005,142.839066 70.015388,90.025543   C70.015480,89.546089 70.123108,89.066658 70.215172,88.297989   C123.628944,88.297989 177.015366,88.297989 230.759018,88.297989   C230.835175,89.652420 230.986130,91.088181 230.986496,92.523964   C230.999664,144.171249 230.946869,195.818695 231.092682,247.465576   C231.105118,251.866531 229.877747,253.127335 225.471252,253.092590   C200.815506,252.898178 176.157333,253.008606 151.000000,253.014954  z"/>
<path fill="#ffffff" opacity="1.000000" stroke="none" d=" M20.003431,142.000000   C20.003433,128.838867 19.993645,116.177734 20.006609,103.516609   C20.016489,93.867043 25.892467,88.017288 35.563461,88.004692   C42.060608,87.996223 48.557774,88.000671 55.054932,88.001305   C61.965523,88.001984 61.970596,88.002998 61.975670,94.775818   C61.983536,105.271179 61.987339,115.766548 61.986439,126.261909   C61.983189,164.078384 62.005276,201.894928 61.930363,239.711273   C61.922596,243.630829 61.332134,247.549240 60.936745,252.390091   C50.987396,251.953064 41.021618,252.327347 31.343744,250.834824   C23.518120,249.627930 19.994732,243.663956 19.992599,235.669769   C19.984310,204.613174 19.997948,173.556595 20.003431,142.000000  z"/>
<path fill="#ffffff" opacity="1.000000" stroke="none" d=" M239.018280,204.000000   C239.020157,167.349442 239.021423,131.198883 239.023895,95.048325   C239.024384,88.002602 239.026566,88.001740 246.172333,88.001228   C252.669479,88.000771 259.166656,87.990601 265.663788,88.006065   C274.989838,88.028267 280.992401,93.964752 280.989624,103.244087   C280.980286,134.318130 280.927856,165.392166 280.919067,196.466202   C280.915405,209.443115 280.997955,222.420059 281.007782,235.397003   C281.015442,245.516129 274.426270,252.016190 264.261108,251.998825   C256.764404,251.986023 249.267715,251.993393 241.771027,251.985611   C241.443558,251.985260 241.116150,251.923050 240.191803,251.828735   C237.845703,236.178787 239.524765,220.298553 239.018280,204.000000  z"/>
<path fill="#ffffff" opacity="1.000000" stroke="none" d=" M186.891998,49.001793   C188.872299,49.001881 190.370193,48.971073 191.866379,49.008251   C196.831192,49.131618 199.899811,51.972088 199.990967,56.845669   C200.112259,63.330822 199.930405,69.821732 200.058487,76.306625   C200.114960,79.166000 198.932144,80.049477 196.198746,80.044426   C165.758026,79.988121 135.317062,79.976242 104.876465,80.058121   C101.724586,80.066589 100.866295,78.797539 100.937500,75.882446   C101.083679,69.897629 100.951828,63.906544 100.987343,57.918354   C101.023682,51.790573 103.847618,49.011002 110.056396,49.007648   C135.507202,48.993904 160.958008,49.001987 186.891998,49.001793  z"/>
</svg>