<svg xmlns="http://www.w3.org/2000/svg" xmlns:xlink="http://www.w3.org/1999/xlink" version="1.1" id="Layer_1" x="0px" y="0px" width="100%" viewBox="0 0 300 300" enable-background="new 0 0 300 300" xml:space="preserve">
<path fill="#FFFFFF" opacity="1.000000" stroke="none" d=" M1.000000,109.000000   C1.000000,72.681595 1.000000,36.863194 1.000000,1.022394   C100.943405,1.022394 200.886826,1.022394 300.915100,1.022394   C300.915100,100.901680 300.915100,200.803452 300.915100,300.852600   C201.000153,300.852600 101.000107,300.852600 1.000000,300.852600   C1.000000,237.113327 1.000000,173.306656 1.000000,109.000000  M205.942139,279.978119   C214.583374,279.930908 223.224609,279.883667 232.702759,279.874146   C250.221008,277.989166 261.776031,266.474274 261.958099,249.951050   C261.985779,224.132034 262.043274,198.313019 262.034332,172.494019   C262.019775,130.353165 261.961914,88.212326 261.905304,45.299393   C260.181244,41.625042 257.322510,42.926136 254.668472,43.727097   C247.933975,45.759495 241.224136,47.873577 234.202347,50.048519   C234.069931,48.323524 233.929352,47.186260 233.903229,46.046368   C233.569290,31.478857 223.843109,22.012691 209.178619,22.029728   C201.206131,22.038990 193.232285,22.010912 185.261780,22.152536   C181.505630,22.219280 177.755890,22.646111 173.065933,22.857872   C161.735016,22.933891 150.404099,23.009912 138.224442,23.061850   C136.113098,23.367878 133.996780,23.967089 131.891220,23.931435   C119.953079,23.729286 108.018875,23.295839 96.080750,23.092468   C80.307106,22.823757 69.933617,34.821667 70.071030,48.980305   C70.142105,56.303696 69.854202,63.638306 70.175354,70.948212   C70.331284,74.497398 71.605499,77.986626 72.184380,81.533852   C72.389664,82.791710 72.555145,84.629684 71.856171,85.374191   C63.318218,94.468430 60.798027,105.486053 60.968884,117.518791   C61.105484,127.139420 60.996468,136.763535 60.996468,146.616348   C49.712807,148.814743 40.304558,152.953964 38.976753,166.996796   C39.020332,179.301010 39.063911,191.605240 39.057064,204.856705   C39.047607,211.177307 39.283398,217.509766 38.978355,223.816071   C38.314331,237.543808 43.019081,247.835449 59.805099,249.984360   C60.087486,250.020508 60.333813,250.338333 60.588444,250.536743   C63.823692,267.965088 75.354164,279.422455 91.014114,279.995667   C95.992561,280.020172 100.971077,280.074158 105.949455,280.064453   C138.971146,280.000214 171.992783,279.922394 205.942139,279.978119  z"/>
<path fill="#7b1fa2" opacity="1.000000" stroke="none" d=" M39.093971,166.077393   C40.304558,152.953964 49.712807,148.814743 60.996468,146.616348   C60.996468,136.763535 61.105484,127.139420 60.968884,117.518791   C60.798027,105.486053 63.318218,94.468430 71.856171,85.374191   C72.555145,84.629684 72.389664,82.791710 72.184380,81.533852   C71.605499,77.986626 70.331284,74.497398 70.175354,70.948212   C69.854202,63.638306 70.142105,56.303696 70.071030,48.980305   C69.933617,34.821667 80.307106,22.823757 96.080750,23.092468   C108.018875,23.295839 119.953079,23.729286 131.891220,23.931435   C133.996780,23.967089 136.113098,23.367878 138.939392,23.361948   C150.393402,23.758135 161.132416,23.874268 171.871674,23.904825   C172.581238,23.906843 173.292664,23.256618 174.003235,22.909775   C177.755890,22.646111 181.505630,22.219280 185.261780,22.152536   C193.232285,22.010912 201.206131,22.038990 209.178619,22.029728   C223.843109,22.012691 233.569290,31.478857 233.903229,46.046368   C233.929352,47.186260 234.069931,48.323524 234.202347,50.048519   C241.224136,47.873577 247.933975,45.759495 254.668472,43.727097   C257.322510,42.926136 260.181244,41.625042 261.619812,45.972252   C261.225677,47.793186 261.022125,48.941250 261.021881,50.089352   C261.007874,115.598061 261.005646,181.106781 261.045685,246.615479   C261.046539,248.029785 261.550720,249.443787 261.820099,250.857941   C261.776031,266.474274 250.221008,277.989166 231.996216,279.571228   C222.534470,279.202209 213.779251,279.136078 204.554382,279.047302   C167.496628,279.015167 130.908508,278.996002 94.320465,279.032684   C92.913651,279.034088 91.507378,279.573364 90.100861,279.862000   C75.354164,279.422455 63.823692,267.965088 60.592705,250.530731   C60.333813,250.338333 60.087486,250.020508 59.805099,249.984360   C43.019081,247.835449 38.314331,237.543808 38.978355,223.816071   C39.283398,217.509766 39.047607,211.177307 39.385094,204.105377   C39.808632,191.653290 39.920528,179.952591 39.960121,168.251648   C39.962574,167.527893 39.395870,166.802185 39.093971,166.077393  M95.026436,189.913071   C95.025780,203.358276 94.996048,216.803635 95.063705,230.248489   C95.071579,231.812515 95.618469,233.373840 95.941246,235.686722   C91.814972,249.945892 79.933304,249.958694 68.325981,250.068741   C70.843269,264.670410 80.298897,272.803986 94.492599,273.035126   C100.154175,273.127319 105.818550,273.078033 111.478676,273.215424   C113.801361,273.271759 116.116211,273.650940 119.769279,274.017029   C112.051086,266.976379 109.477020,261.477051 109.714195,252.296753   C109.803490,245.525345 109.962395,238.753540 109.922432,231.982895   C109.914581,230.653519 109.137978,229.328674 108.262863,227.316208   C108.208344,226.488342 108.106537,225.660492 108.106087,224.832596   C108.080276,177.532104 108.062836,130.231613 108.044739,82.931122   C108.044006,81.025848 108.044655,79.120575 108.044655,77.238167   C87.942703,76.948555 68.851234,91.056030 68.140236,113.013412   C67.850357,121.965759 68.699234,130.950241 68.859329,139.923157   C69.035370,149.789352 69.372826,150.155609 79.298447,148.901016   C88.306389,147.762405 94.716278,152.875397 95.289062,162.689331   C95.218727,171.450806 95.148392,180.212265 95.026436,189.913071  M47.618816,181.674225   C60.847984,181.765213 74.077110,181.867371 87.306442,181.908691   C87.868706,181.910461 88.432739,181.348389 89.099686,180.110489   C89.081543,175.300400 89.105682,170.489700 89.035324,165.680389   C88.930161,158.492340 84.838005,154.217224 77.691101,154.019287   C72.553299,153.876999 67.388611,153.734634 62.270832,154.092133   C56.181744,154.517471 49.386501,155.824661 47.633720,162.257111   C46.030285,168.141479 47.143635,174.766174 47.618816,181.674225  M76.490601,45.532494   C76.352264,54.711273 76.187714,63.889893 76.132217,73.069176   C76.128357,73.708176 76.934204,74.352066 77.739052,75.519714   C78.004044,76.532104 78.269028,77.544487 78.204712,77.298775   C86.553276,74.832039 94.439117,71.738922 102.611771,70.411308   C106.658302,69.753960 108.149155,68.955185 108.124794,65.135513   C108.082397,58.490467 108.159225,51.844448 108.089447,45.199856   C108.026520,39.208096 105.418365,34.467949 99.903290,32.128677   C94.191841,29.706118 88.266876,30.052389 83.808502,34.802826   C81.073563,37.716927 79.336601,41.567657 76.490601,45.532494  M148.276917,181.324677   C147.637375,181.483215 147.006226,181.715134 146.357040,181.789215   C137.538696,182.795624 134.392502,187.637222 135.070786,199.578018   C135.549042,207.997452 142.151123,202.489731 145.653198,204.063049   C146.074615,204.252365 146.633789,204.134979 147.718994,204.710632   C162.749832,204.799561 177.780655,204.901840 192.811615,204.936417   C193.532135,204.938080 194.254028,204.342056 195.557083,203.419250   C195.373734,195.948715 195.190399,188.478165 194.450317,180.374405   C179.853500,180.275452 165.256729,180.165955 150.659744,180.117798   C150.101242,180.115952 149.540756,180.705673 148.276917,181.324677  M88.402473,187.398804   C75.152763,187.294159 61.903095,187.177902 48.653179,187.125290   C48.094463,187.123077 47.533398,187.712631 46.574642,188.291779   C46.330921,188.503311 46.128731,188.749008 45.364372,189.600677   C45.253563,203.030746 45.126263,216.460754 45.078629,229.891052   C45.076134,230.593689 45.751019,231.298721 46.602898,232.474609   C49.039562,239.527985 54.955128,244.104630 62.181072,243.851410   C67.427162,243.667557 72.661629,242.862808 77.876869,242.155014   C85.920578,241.063324 89.126930,237.472565 89.154236,229.256943   C89.199966,215.498657 89.060127,201.739777 88.402473,187.398804  M254.290237,197.828583   C252.370834,198.286606 250.363983,198.522369 248.545868,199.237778   C233.896744,205.002167 219.275391,210.837463 204.662262,216.692764   C198.166245,219.295639 196.902054,218.753998 195.138458,212.000809   C175.156555,212.000809 155.072418,212.000809 134.394363,212.589417   C134.264297,221.033554 134.093735,229.477493 134.056732,237.922043   C134.052261,238.946991 134.767303,239.975113 135.643524,241.449448   C137.937729,248.477051 143.386810,251.881912 150.545853,254.591965   C151.355957,254.730301 152.166000,254.989227 152.976151,254.989578   C185.098633,255.003296 217.221130,255.004593 249.343521,254.944580   C250.563110,254.942307 251.781555,254.318100 253.399048,253.572433   C253.933929,253.381454 254.468811,253.190475 255.605988,252.419937   C255.721268,234.857101 255.844711,217.294296 255.915405,199.731277   C255.917725,199.158188 255.382416,198.582932 254.290237,197.828583  M179.268417,86.706619   C179.177765,89.814407 178.923599,92.927956 179.032822,96.028702   C179.220459,101.355553 179.634857,106.674416 180.553024,112.471672   C182.502228,112.938026 184.485413,113.893654 186.393005,113.761116   C189.608231,113.537704 192.775497,112.624107 196.593582,111.443588   C196.711517,100.932076 196.851929,90.420647 196.886444,79.908859   C196.888336,79.333389 196.007904,78.755028 195.213196,77.277245   C195.140610,74.783730 195.043732,72.290642 195.000015,69.796616   C194.875320,62.680382 195.324112,62.042824 202.100739,59.939438   C210.284393,57.399330 218.478928,54.894249 226.890503,52.305771   C226.890503,50.443382 226.984146,48.786888 226.875519,47.143768   C226.083618,35.166462 220.429749,29.922827 208.391830,29.922300   C204.228500,29.922117 200.065170,29.885170 195.321838,29.291733   C188.919022,29.196732 182.514801,28.981905 176.113937,29.055679   C172.753464,29.094410 169.398788,29.638569 165.190292,30.068529   C146.988159,30.510172 128.786026,30.951815 111.102631,31.380869   C112.394897,35.427380 113.622459,39.271286 114.305084,43.710865   C114.215782,57.777622 114.110771,71.844345 114.084084,85.911224   C114.082764,86.606964 114.763741,87.304001 115.622017,88.509933   C119.495110,104.715446 132.847412,116.888588 156.308655,112.250771   C156.308655,110.011757 156.329926,107.616684 156.304779,105.222092   C156.217697,96.924248 155.910751,88.621918 156.100159,80.330719   C156.200378,75.944054 161.131699,72.700569 164.732605,73.704987   C167.331451,74.429893 170.161026,74.949059 172.814743,74.718918   C177.482132,74.314140 179.551987,75.559563 179.902084,80.154503   C180.052780,82.132538 179.868225,84.136116 179.268417,86.706619  M115.499168,206.658798   C115.665611,221.622787 115.819595,236.586929 116.002701,251.550720   C116.133911,262.273285 126.305359,272.959747 136.958527,273.003937   C168.412064,273.134460 199.866821,273.099640 231.320526,272.978210   C239.813156,272.945404 246.436554,269.217133 251.239532,261.262329   C249.399002,261.143555 248.145264,260.993378 246.891388,260.992157   C230.249619,260.975983 213.606964,260.876190 196.966293,261.012238   C182.840179,261.127747 168.715698,261.492554 154.591705,261.801758   C144.062622,262.032227 132.846069,255.703293 130.046219,246.537369   C128.348068,240.978165 128.709961,234.789703 128.720871,228.308441   C128.809250,218.827454 128.961029,209.346375 128.944275,199.865570   C128.939713,197.284210 128.427521,194.703766 128.098724,191.343384   C130.879974,179.804779 136.660477,174.593033 147.395981,174.593658   C147.908981,174.424606 148.421967,174.255554 149.507431,174.000931   C149.698059,174.030701 149.888672,174.060455 150.653610,174.674347   C164.867599,174.757690 179.081543,174.851273 193.295654,174.886795   C193.862015,174.888199 194.429764,174.337860 195.268280,173.624191   C195.526230,173.415329 195.784195,173.206451 196.638992,172.413391   C196.740921,155.829636 196.852127,139.245911 196.904449,122.661987   C196.906204,122.108070 196.312515,121.552277 195.450302,120.347984   C190.412857,120.347984 185.375412,120.347984 179.962891,120.347984   C179.962891,125.458206 179.944870,130.101807 179.968231,134.745209   C179.989334,138.940140 178.175980,142.375931 173.966995,142.574432   C168.422409,142.835907 162.124298,145.169998 157.669937,139.637131   C156.791183,138.545609 156.997528,136.459137 156.969543,134.826935   C156.887772,130.056747 156.940475,125.284241 156.940475,119.991058   C153.238510,119.991058 150.115051,119.846504 147.009308,120.019661   C139.374985,120.445312 132.024063,119.539017 125.567711,115.145523   C121.940796,112.677429 118.637978,109.733093 114.484383,107.493118   C114.318352,108.293762 114.007584,109.094330 114.007179,109.895058   C113.991524,140.704895 113.992775,171.514786 114.055412,202.324509   C114.057907,203.550476 114.679474,204.775208 115.499168,206.658798  M255.618637,188.411118   C255.741776,187.599274 255.972305,186.787476 255.972702,185.975586   C255.993637,142.907394 256.002686,99.839180 255.960175,56.771030   C255.958954,55.538246 255.387833,54.306030 254.901184,52.474705   C254.243896,52.307526 253.495224,51.845139 252.942642,52.016186   C237.749039,56.719326 222.602478,61.576511 207.377869,66.175682   C203.931046,67.216927 202.814316,68.826035 202.826599,72.485405   C202.974243,116.431557 202.928299,160.378357 202.948578,204.324982   C202.949234,205.761429 203.116257,207.197830 203.248489,209.321030   C220.845383,202.413910 237.934860,195.705963 255.618637,188.411118  M172.991272,86.614273   C172.964035,79.182205 171.841217,78.499512 163.169220,80.837791   C163.169220,88.716637 163.089767,96.660530 163.189484,104.602180   C163.312485,114.399437 163.377686,114.403000 172.831070,112.674538   C173.076309,112.629692 173.255569,112.224037 173.053574,112.452339   C173.053574,108.002075 173.061813,104.028229 173.051300,100.054443   C173.040314,95.899429 173.011307,91.744469 172.991272,86.614273  M164.478714,136.628784   C172.469360,137.547409 172.974670,137.105469 172.998718,129.135498   C173.007538,126.209274 173.000153,123.283005 173.000153,120.240715   C170.220032,120.240715 167.321777,120.240715 163.927734,120.240715   C163.927734,125.724228 163.927734,130.906021 164.478714,136.628784  z"/>
<path fill="#7b1fa2" opacity="1.000000" stroke="none" d=" M261.889099,250.404495   C261.550720,249.443787 261.046539,248.029785 261.045685,246.615479   C261.005646,181.106781 261.007874,115.598061 261.021881,50.089352   C261.022125,48.941250 261.225677,47.793186 261.628357,46.358292   C261.961914,88.212326 262.019775,130.353165 262.034332,172.494019   C262.043274,198.313019 261.985779,224.132034 261.889099,250.404495  z"/>
<path fill="#7b1fa2" opacity="1.000000" stroke="none" d=" M90.557487,279.928833   C91.507378,279.573364 92.913651,279.034088 94.320465,279.032684   C130.908508,278.996002 167.496628,279.015167 204.549438,279.241638   C205.014145,279.458649 205.014450,279.848938 205.014450,279.848938   C171.992783,279.922394 138.971146,280.000214 105.949455,280.064453   C100.971077,280.074158 95.992561,280.020172 90.557487,279.928833  z"/>
<path fill="#7b1fa2" opacity="1.000000" stroke="none" d=" M39.035362,166.537094   C39.395870,166.802185 39.962574,167.527893 39.960121,168.251648   C39.920528,179.952591 39.808632,191.653290 39.410305,203.631744   C39.063911,191.605240 39.020332,179.301010 39.035362,166.537094  z"/>
<path fill="#7b1fa2" opacity="1.000000" stroke="none" d=" M173.534576,22.883823   C173.292664,23.256618 172.581238,23.906843 171.871674,23.904825   C161.132416,23.874268 150.393402,23.758135 139.363754,23.373989   C150.404099,23.009912 161.735016,22.933891 173.534576,22.883823  z"/>
<path fill="#7b1fa2" opacity="1.000000" stroke="none" d=" M205.478302,279.913513   C205.014450,279.848938 205.014145,279.458649 205.019089,279.264282   C213.779251,279.136078 222.534470,279.202209 231.577759,279.552368   C223.224609,279.883667 214.583374,279.930908 205.478302,279.913513  z"/>
<path fill="#FEFEFE" opacity="1.000000" stroke="none" d=" M255.024338,188.998016   C237.934860,195.705963 220.845383,202.413910 203.248489,209.321030   C203.116257,207.197830 202.949234,205.761429 202.948578,204.324982   C202.928299,160.378357 202.974243,116.431557 202.826599,72.485405   C202.814316,68.826035 203.931046,67.216927 207.377869,66.175682   C222.602478,61.576511 237.749039,56.719326 252.942642,52.016186   C253.495224,51.845139 254.243896,52.307526 254.951584,53.235191   C255.009430,98.996460 255.016891,143.997238 255.024338,188.998016  M227.410187,134.645004   C228.709641,136.484665 230.009109,138.324310 231.584854,140.555084   C235.469147,135.031448 239.952988,130.991531 238.810883,124.521713   C233.437515,122.748802 233.565857,122.800201 231.528091,127.888512   C230.643646,130.097000 229.108246,132.044785 227.410187,134.645004  M228.314270,102.232849   C230.283859,105.916946 232.253433,109.601036 234.820160,114.402077   C236.032059,113.429031 238.920380,111.901901 238.730957,111.133949   C237.468979,106.017784 235.549286,101.063850 233.843323,96.057198   C233.256485,96.096603 232.669632,96.136009 232.082794,96.175407   C230.779327,97.962265 229.475845,99.749123 228.314270,102.232849  M228.385178,171.627289   C230.846832,174.478073 233.308472,177.328857 236.054916,180.509460   C238.599014,177.758896 240.337250,175.879608 242.036026,174.042969   C235.102081,166.096161 234.461197,165.967514 228.385178,171.627289  M223.011017,86.553619   C220.702026,85.020409 218.393036,83.487198 216.145630,81.994888   C208.696365,90.608673 212.367432,90.571899 220.215698,95.321762   C221.322876,92.513535 222.382263,89.826561 223.011017,86.553619  M216.919006,152.556076   C217.545013,155.935608 218.171021,159.315140 218.797028,162.694672   C220.709000,162.299988 222.620987,161.905304 223.943298,161.632339   C223.562744,157.116669 223.254944,153.464325 222.892654,149.165512   C222.212479,148.804871 220.812561,148.062622 218.968842,147.085083   C218.251480,148.848892 217.652649,150.321274 216.919006,152.556076  z"/>
<path fill="#FEFEFE" opacity="1.000000" stroke="none" d=" M115.189148,107.003311   C118.637978,109.733093 121.940796,112.677429 125.567711,115.145523   C132.024063,119.539017 139.374985,120.445312 147.009308,120.019661   C150.115051,119.846504 153.238510,119.991058 156.940475,119.991058   C156.940475,125.284241 156.887772,130.056747 156.969543,134.826935   C156.997528,136.459137 156.791183,138.545609 157.669937,139.637131   C162.124298,145.169998 168.422409,142.835907 173.966995,142.574432   C178.175980,142.375931 179.989334,138.940140 179.968231,134.745209   C179.944870,130.101807 179.962891,125.458206 179.962891,120.347984   C185.375412,120.347984 190.412857,120.347984 195.683044,121.140190   C195.957916,138.954117 196.000031,155.975845 196.042145,172.997574   C195.784195,173.206451 195.526230,173.415329 194.664642,173.812469   C179.400436,174.030579 164.739868,174.060394 150.079300,174.090210   C149.888672,174.060455 149.698059,174.030701 148.918488,174.014145   C147.929489,174.079971 147.529404,174.132599 147.129333,174.185211   C136.660477,174.593033 130.879974,179.804779 128.062836,192.188629   C128.066757,204.983887 128.106567,216.933914 128.146378,228.883942   C128.709961,234.789703 128.348068,240.978165 130.046219,246.537369   C132.846069,255.703293 144.062622,262.032227 154.591705,261.801758   C168.715698,261.492554 182.840179,261.127747 196.966293,261.012238   C213.606964,260.876190 230.249619,260.975983 246.891388,260.992157   C248.145264,260.993378 249.399002,261.143555 251.239532,261.262329   C246.436554,269.217133 239.813156,272.945404 231.320526,272.978210   C199.866821,273.099640 168.412064,273.134460 136.958527,273.003937   C126.305359,272.959747 116.133911,262.273285 116.002701,251.550720   C115.819595,236.586929 115.665611,221.622787 115.304535,205.862946   C115.136314,172.379166 115.162735,139.691238 115.189148,107.003311  z"/>
<path fill="#FEFEFE" opacity="1.000000" stroke="none" d=" M195.901840,29.865017   C200.065170,29.885170 204.228500,29.922117 208.391830,29.922300   C220.429749,29.922827 226.083618,35.166462 226.875519,47.143768   C226.984146,48.786888 226.890503,50.443382 226.890503,52.305771   C218.478928,54.894249 210.284393,57.399330 202.100739,59.939438   C195.324112,62.042824 194.875320,62.680382 195.000015,69.796616   C195.043732,72.290642 195.140610,74.783730 195.280212,78.168625   C195.552475,90.040268 195.757706,101.020531 195.962936,112.000793   C192.775497,112.624107 189.608231,113.537704 186.393005,113.761116   C184.485413,113.893654 182.502228,112.938026 180.289001,111.766876   C179.961975,102.750748 179.898987,94.439423 179.835999,86.128090   C179.868225,84.136116 180.052780,82.132538 179.902084,80.154503   C179.551987,75.559563 177.482132,74.314140 172.814743,74.718918   C170.161026,74.949059 167.331451,74.429893 164.732605,73.704987   C161.131699,72.700569 156.200378,75.944054 156.100159,80.330719   C155.910751,88.621918 156.217697,96.924248 156.304779,105.222092   C156.329926,107.616684 156.308655,110.011757 156.308655,112.250771   C132.847412,116.888588 119.495110,104.715446 115.380219,87.786133   C115.042282,72.413292 114.946152,57.764240 114.850021,43.115189   C113.622459,39.271286 112.394897,35.427380 111.102631,31.380869   C128.786026,30.951815 146.988159,30.510172 166.078293,30.062920   C176.611481,29.993214 186.256653,29.929115 195.901840,29.865017  z"/>
<path fill="#FEFFFF" opacity="1.000000" stroke="none" d=" M134.988281,212.000809   C155.072418,212.000809 175.156555,212.000809 195.138458,212.000809   C196.902054,218.753998 198.166245,219.295639 204.662262,216.692764   C219.275391,210.837463 233.896744,205.002167 248.545868,199.237778   C250.363983,198.522369 252.370834,198.286606 254.642715,198.384216   C254.998032,216.959732 255.000870,234.979614 255.003708,252.999481   C254.468811,253.190475 253.933929,253.381454 252.731567,253.754227   C218.042419,253.941040 184.020752,253.946045 149.999100,253.951065   C143.386810,251.881912 137.937729,248.477051 135.386505,240.756348   C135.082428,230.709106 135.035355,221.354965 134.988281,212.000809  z"/>
<path fill="#FEFEFE" opacity="1.000000" stroke="none" d=" M109.158058,252.885742   C109.477020,261.477051 112.051086,266.976379 119.769279,274.017029   C116.116211,273.650940 113.801361,273.271759 111.478676,273.215424   C105.818550,273.078033 100.154175,273.127319 94.492599,273.035126   C80.298897,272.803986 70.843269,264.670410 68.325981,250.068741   C79.933304,249.958694 91.814972,249.945892 96.007370,234.853561   C96.012390,219.009720 95.951294,203.999039 95.956528,188.524521   C95.969795,179.412003 95.916748,170.763321 95.863701,162.114639   C94.716278,152.875397 88.306389,147.762405 79.298447,148.901016   C69.372826,150.155609 69.035370,149.789352 68.859329,139.923157   C68.699234,130.950241 67.850357,121.965759 68.140236,113.013412   C68.851234,91.056030 87.942703,76.948555 108.044655,77.238167   C108.044655,79.120575 108.044006,81.025848 108.044739,82.931122   C108.062836,130.231613 108.080276,177.532104 108.106087,224.832596   C108.106537,225.660492 108.208344,226.488342 108.520622,228.127853   C108.904938,236.921585 109.031502,244.903656 109.158058,252.885742  z"/>
<path fill="#FDFEFE" opacity="1.000000" stroke="none" d=" M45.968067,189.028900   C46.128731,188.749008 46.330921,188.503311 47.242203,188.221161   C61.605976,188.094070 75.302185,188.037613 88.998398,187.981140   C89.060127,201.739777 89.199966,215.498657 89.154236,229.256943   C89.126930,237.472565 85.920578,241.063324 77.876869,242.155014   C72.661629,242.862808 67.427162,243.667557 62.181072,243.851410   C54.955128,244.104630 49.039562,239.527985 46.368187,231.769455   C46.078335,217.052505 46.023201,203.040695 45.968067,189.028900  z"/>
<path fill="#FDFEFE" opacity="1.000000" stroke="none" d=" M195.007050,181.007629   C195.190399,188.478165 195.373734,195.948715 194.800186,203.700302   C178.405228,204.040833 162.767181,204.100296 147.129120,204.159760   C146.633789,204.134979 146.074615,204.252365 145.653198,204.063049   C142.151123,202.489731 135.549042,207.997452 135.070786,199.578018   C134.392502,187.637222 137.538696,182.795624 146.357040,181.789215   C147.006226,181.715134 147.637375,181.483215 149.098557,181.207520   C164.949142,181.062775 179.978104,181.035202 195.007050,181.007629  z"/>
<path fill="#FEFEFE" opacity="1.000000" stroke="none" d=" M77.151489,44.997784   C79.336601,41.567657 81.073563,37.716927 83.808502,34.802826   C88.266876,30.052389 94.191841,29.706118 99.903290,32.128677   C105.418365,34.467949 108.026520,39.208096 108.089447,45.199856   C108.159225,51.844448 108.082397,58.490467 108.124794,65.135513   C108.149155,68.955185 106.658302,69.753960 102.611771,70.411308   C94.439117,71.738922 86.553276,74.832039 78.204712,77.298775   C78.269028,77.544487 78.004044,76.532104 77.485199,74.790146   C77.204735,64.372986 77.178108,54.685383 77.151489,44.997784  z"/>
<path fill="#FEFEFE" opacity="1.000000" stroke="none" d=" M47.059776,181.064621   C47.143635,174.766174 46.030285,168.141479 47.633720,162.257111   C49.386501,155.824661 56.181744,154.517471 62.270832,154.092133   C67.388611,153.734634 72.553299,153.876999 77.691101,154.019287   C84.838005,154.217224 88.930161,158.492340 89.035324,165.680389   C89.105682,170.489700 89.081543,175.300400 88.580322,180.550430   C74.393898,181.015121 60.726837,181.039871 47.059776,181.064621  z"/>
<path fill="#FBFCFC" opacity="1.000000" stroke="none" d=" M172.990723,87.101883   C173.011307,91.744469 173.040314,95.899429 173.051300,100.054443   C173.061813,104.028229 173.053574,108.002075 173.053574,112.452339   C173.255569,112.224037 173.076309,112.629692 172.831070,112.674538   C163.377686,114.403000 163.312485,114.399437 163.189484,104.602180   C163.089767,96.660530 163.169220,88.716637 163.169220,80.837791   C171.841217,78.499512 172.964035,79.182205 172.990723,87.101883  z"/>
<path fill="#FBFCFC" opacity="1.000000" stroke="none" d=" M164.203217,136.358307   C163.927734,130.906021 163.927734,125.724228 163.927734,120.240715   C167.321777,120.240715 170.220032,120.240715 173.000153,120.240715   C173.000153,123.283005 173.007538,126.209274 172.998718,129.135498   C172.974670,137.105469 172.469360,137.547409 164.203217,136.358307  z"/>
<path fill="#7b1fa2" opacity="1.000000" stroke="none" d=" M255.321487,188.704559   C255.016891,143.997238 255.009430,98.996460 255.042206,53.534615   C255.387833,54.306030 255.958954,55.538246 255.960175,56.771030   C256.002686,99.839180 255.993637,142.907394 255.972702,185.975586   C255.972305,186.787476 255.741776,187.599274 255.321487,188.704559  z"/>
<path fill="#7b1fa2" opacity="1.000000" stroke="none" d=" M150.272476,254.271515   C184.020752,253.946045 218.042419,253.941040 252.532303,253.959869   C251.781555,254.318100 250.563110,254.942307 249.343521,254.944580   C217.221130,255.004593 185.098633,255.003296 152.976151,254.989578   C152.166000,254.989227 151.355957,254.730301 150.272476,254.271515  z"/>
<path fill="#7b1fa2" opacity="1.000000" stroke="none" d=" M114.836769,107.248215   C115.162735,139.691238 115.136314,172.379166 115.061249,205.533798   C114.679474,204.775208 114.057907,203.550476 114.055412,202.324509   C113.992775,171.514786 113.991524,140.704895 114.007179,109.895058   C114.007584,109.094330 114.318352,108.293762 114.836769,107.248215  z"/>
<path fill="#7b1fa2" opacity="1.000000" stroke="none" d=" M255.304840,252.709717   C255.000870,234.979614 254.998032,216.959732 255.046448,198.474258   C255.382416,198.582932 255.917725,199.158188 255.915405,199.731277   C255.844711,217.294296 255.721268,234.857101 255.304840,252.709717  z"/>
<path fill="#7b1fa2" opacity="1.000000" stroke="none" d=" M196.340576,172.705475   C196.000031,155.975845 195.957916,138.954117 195.956085,121.464874   C196.312515,121.552277 196.906204,122.108070 196.904449,122.661987   C196.852127,139.245911 196.740921,155.829636 196.340576,172.705475  z"/>
<path fill="#7b1fa2" opacity="1.000000" stroke="none" d=" M147.424057,204.435211   C162.767181,204.100296 178.405228,204.040833 194.509277,204.002853   C194.254028,204.342056 193.532135,204.938080 192.811615,204.936417   C177.780655,204.901840 162.749832,204.799561 147.424057,204.435211  z"/>
<path fill="#7b1fa2" opacity="1.000000" stroke="none" d=" M196.278259,111.722191   C195.757706,101.020531 195.552475,90.040268 195.442719,78.619011   C196.007904,78.755028 196.888336,79.333389 196.886444,79.908859   C196.851929,90.420647 196.711517,100.932076 196.278259,111.722191  z"/>
<path fill="#7b1fa2" opacity="1.000000" stroke="none" d=" M194.728683,180.691010   C179.978104,181.035202 164.949142,181.062775 149.450684,181.055054   C149.540756,180.705673 150.101242,180.115952 150.659744,180.117798   C165.256729,180.165955 179.853500,180.275452 194.728683,180.691010  z"/>
<path fill="#7b1fa2" opacity="1.000000" stroke="none" d=" M95.890198,188.988358   C95.951294,203.999039 96.012390,219.009720 95.994476,234.478409   C95.618469,233.373840 95.071579,231.812515 95.063705,230.248489   C94.996048,216.803635 95.025780,203.358276 95.254837,189.450180   C95.483231,188.987289 95.890198,188.988358 95.890198,188.988358  z"/>
<path fill="#7b1fa2" opacity="1.000000" stroke="none" d=" M114.577553,43.413025   C114.946152,57.764240 115.042282,72.413292 115.132721,87.531387   C114.763741,87.304001 114.082764,86.606964 114.084084,85.911224   C114.110771,71.844345 114.215782,57.777622 114.577553,43.413025  z"/>
<path fill="#7b1fa2" opacity="1.000000" stroke="none" d=" M150.366455,174.382278   C164.739868,174.060394 179.400436,174.030579 194.528931,174.022675   C194.429764,174.337860 193.862015,174.888199 193.295654,174.886795   C179.081543,174.851273 164.867599,174.757690 150.366455,174.382278  z"/>
<path fill="#7b1fa2" opacity="1.000000" stroke="none" d=" M45.666222,189.314789   C46.023201,203.040695 46.078335,217.052505 46.122013,231.533478   C45.751019,231.298721 45.076134,230.593689 45.078629,229.891052   C45.126263,216.460754 45.253563,203.030746 45.666222,189.314789  z"/>
<path fill="#7b1fa2" opacity="1.000000" stroke="none" d=" M47.339294,181.369415   C60.726837,181.039871 74.393898,181.015121 88.528458,181.019684   C88.432739,181.348389 87.868706,181.910461 87.306442,181.908691   C74.077110,181.867371 60.847984,181.765213 47.339294,181.369415  z"/>
<path fill="#7b1fa2" opacity="1.000000" stroke="none" d=" M88.700439,187.689972   C75.302185,188.037613 61.605976,188.094070 47.441597,188.088516   C47.533398,187.712631 48.094463,187.123077 48.653179,187.125290   C61.903095,187.177902 75.152763,187.294159 88.700439,187.689972  z"/>
<path fill="#7b1fa2" opacity="1.000000" stroke="none" d=" M128.433624,228.596191   C128.106567,216.933914 128.066757,204.983887 128.087616,192.578369   C128.427521,194.703766 128.939713,197.284210 128.944275,199.865570   C128.961029,209.346375 128.809250,218.827454 128.433624,228.596191  z"/>
<path fill="#7b1fa2" opacity="1.000000" stroke="none" d=" M76.821045,45.265137   C77.178108,54.685383 77.204735,64.372986 77.297440,74.527130   C76.934204,74.352066 76.128357,73.708176 76.132217,73.069176   C76.187714,63.889893 76.352264,54.711273 76.821045,45.265137  z"/>
<path fill="#7b1fa2" opacity="1.000000" stroke="none" d=" M195.611847,29.578375   C186.256653,29.929115 176.611481,29.993214 166.503906,30.005901   C169.398788,29.638569 172.753464,29.094410 176.113937,29.055679   C182.514801,28.981905 188.919022,29.196732 195.611847,29.578375  z"/>
<path fill="#7b1fa2" opacity="1.000000" stroke="none" d=" M134.691315,212.295105   C135.035355,221.354965 135.082428,230.709106 135.139191,240.532501   C134.767303,239.975113 134.052261,238.946991 134.056732,237.922043   C134.093735,229.477493 134.264297,221.033554 134.691315,212.295105  z"/>
<path fill="#7b1fa2" opacity="1.000000" stroke="none" d=" M95.956528,188.524521   C95.890198,188.988358 95.483231,188.987289 95.280640,188.980515   C95.148392,180.212265 95.218727,171.450806 95.576385,162.401978   C95.916748,170.763321 95.969795,179.412003 95.956528,188.524521  z"/>
<path fill="#7b1fa2" opacity="1.000000" stroke="none" d=" M179.552216,86.417358   C179.898987,94.439423 179.961975,102.750748 179.989517,111.529358   C179.634857,106.674416 179.220459,101.355553 179.032822,96.028702   C178.923599,92.927956 179.177765,89.814407 179.552216,86.417358  z"/>
<path fill="#7b1fa2" opacity="1.000000" stroke="none" d=" M109.436127,252.591248   C109.031502,244.903656 108.904938,236.921585 108.747154,228.470612   C109.137978,229.328674 109.914581,230.653519 109.922432,231.982895   C109.962395,238.753540 109.803490,245.525345 109.436127,252.591248  z"/>
<path fill="#7b1fa2" opacity="1.000000" stroke="none" d=" M147.262665,174.389435   C147.529404,174.132599 147.929489,174.079971 148.632263,174.056931   C148.421967,174.255554 147.908981,174.424606 147.262665,174.389435  z"/>
<path fill="#7b1fa2" opacity="1.000000" stroke="none" d=" M227.639359,134.377991   C229.108246,132.044785 230.643646,130.097000 231.528091,127.888512   C233.565857,122.800201 233.437515,122.748802 238.810883,124.521713   C239.952988,130.991531 235.469147,135.031448 231.584854,140.555084   C230.009109,138.324310 228.709641,136.484665 227.639359,134.377991  z"/>
<path fill="#7b1fa2" opacity="1.000000" stroke="none" d=" M228.243317,101.884415   C229.475845,99.749123 230.779327,97.962265 232.082794,96.175407   C232.669632,96.136009 233.256485,96.096603 233.843323,96.057198   C235.549286,101.063850 237.468979,106.017784 238.730957,111.133949   C238.920380,111.901901 236.032059,113.429031 234.820160,114.402077   C232.253433,109.601036 230.283859,105.916946 228.243317,101.884415  z"/>
<path fill="#7b1fa2" opacity="1.000000" stroke="none" d=" M228.554764,171.341965   C234.461197,165.967514 235.102081,166.096161 242.036026,174.042969   C240.337250,175.879608 238.599014,177.758896 236.054916,180.509460   C233.308472,177.328857 230.846832,174.478073 228.554764,171.341965  z"/>
<path fill="#7b1fa2" opacity="1.000000" stroke="none" d=" M223.226318,86.846603   C222.382263,89.826561 221.322876,92.513535 220.215698,95.321762   C212.367432,90.571899 208.696365,90.608673 216.145630,81.994888   C218.393036,83.487198 220.702026,85.020409 223.226318,86.846603  z"/>
<path fill="#7b1fa2" opacity="1.000000" stroke="none" d=" M216.986404,152.174866   C217.652649,150.321274 218.251480,148.848892 218.968842,147.085083   C220.812561,148.062622 222.212479,148.804871 222.892654,149.165512   C223.254944,153.464325 223.562744,157.116669 223.943298,161.632339   C222.620987,161.905304 220.709000,162.299988 218.797028,162.694672   C218.171021,159.315140 217.545013,155.935608 216.986404,152.174866  z"/>
</svg>