<svg xmlns="http://www.w3.org/2000/svg" xmlns:xlink="http://www.w3.org/1999/xlink" version="1.1" id="Layer_1" x="0px" y="0px" width="100%" viewBox="0 0 288 288" enable-background="new 0 0 288 288" xml:space="preserve">
<path fill="#7b1fa2" opacity="1.000000" stroke="none" d=" M25.653397,144.646347   C34.226654,146.727478 42.162792,149.768265 50.947323,151.188461   C52.104893,144.530853 53.127472,138.206497 54.325867,131.915649   C55.102844,127.836960 55.881924,123.726280 57.135395,119.780952   C58.146656,116.597969 57.137325,114.846817 54.535831,113.176651   C48.229527,109.127991 42.094990,104.812248 35.800472,100.744583   C31.897589,98.222443 28.944849,95.251434 30.066681,90.182945   C31.268663,84.752335 35.303684,81.352913 40.929062,80.622093   C48.762321,79.604439 56.393810,81.134460 63.338974,84.259567   C70.821732,87.626587 75.114029,85.239769 80.057449,79.502953   C99.722008,56.682335 124.948166,44.125854 154.793396,40.555851   C207.268219,34.278961 262.089264,66.761269 276.223206,123.692520   C287.140991,167.669220 276.090027,205.821869 243.310852,237.009506   C226.128387,253.357712 205.119156,263.335175 181.483597,266.140656   C131.894180,272.026825 93.934875,252.948456 67.152451,211.070526   C66.357834,209.828033 65.533516,208.604538 64.379959,206.850510   C62.291988,210.963943 60.413914,214.493774 55.231899,214.434509   C47.324368,214.344101 45.019547,212.911774 42.774422,205.176895   C42.311001,203.580307 41.889172,201.970688 41.386444,200.386642   C39.279186,193.746872 39.252781,193.660995 32.249866,195.068466   C29.497478,195.621643 27.761745,194.470184 26.279583,192.483688   C21.853746,186.551895 22.076164,182.768829 27.096857,177.264328   C27.642332,176.666290 28.054623,175.946762 28.705685,175.035980   C25.845053,171.190186 21.626930,169.024963 18.261969,165.928513   C16.794661,164.578293 15.127549,163.445831 13.653452,162.102249   C10.819691,159.519424 7.542570,157.072678 9.673171,152.422836   C11.762686,147.862671 14.891677,144.729080 20.265324,144.654739   C21.931311,144.631699 23.597483,144.622162 25.653397,144.646347  M198.402039,95.328522   C191.820419,87.663956 187.262375,86.597923 178.255249,90.661285   C176.890396,91.277000 175.579834,92.014359 174.251404,92.709290   C135.117722,113.180733 98.009407,137.208908 59.210857,158.273712   C56.067013,159.980591 53.262955,160.659698 49.756916,159.634872   C41.455860,157.208466 33.054649,155.126602 24.713095,152.835678   C22.252373,152.159866 20.227598,152.265030 18.652054,155.050110   C24.191631,159.648712 29.585543,164.055069 34.899025,168.556351   C40.839668,173.588913 40.727493,176.742294 34.630531,181.733353   C33.440483,182.707535 31.456738,183.139053 31.836746,185.605087   C33.642414,186.648163 35.270336,185.548080 36.903774,184.978287   C58.597515,177.410904 80.281097,169.827148 101.577194,161.163010   C106.153763,159.301071 110.193489,157.814850 110.366104,151.927277   C110.432449,149.664276 112.243919,148.413986 114.567757,148.570618   C117.396187,148.761261 117.240173,150.951889 117.351501,153.000198   C117.721703,159.811447 118.033958,166.629532 118.601219,173.425583   C119.761948,187.331696 121.082222,201.224426 122.314896,215.124619   C122.501389,217.227570 121.909943,219.721558 124.740379,220.514053   C127.316185,221.235275 129.392899,220.032684 130.810150,218.023270   C131.941315,216.419479 133.034790,214.594666 133.449524,212.714539   C135.022949,205.581940 136.345840,198.393066 137.703979,191.214188   C141.751801,169.818115 145.760468,148.414627 149.825577,127.021858   C150.139252,125.371071 150.706024,123.654457 152.940155,123.824280   C154.907761,123.973839 156.500443,124.880577 157.101364,126.847588   C157.475571,128.072510 157.490311,129.407227 157.668015,130.704636   C168.258621,128.680603 191.606171,113.954712 197.467209,105.760666   C199.652100,102.706070 200.690308,99.558846 198.402039,95.328522  M170.200333,244.702362   C182.919922,231.393021 191.756058,215.824402 197.931183,197.753143   C180.761719,193.951157 164.168945,190.276871 147.673157,186.624069   C145.931549,188.651703 145.752548,190.833481 145.350769,192.923935   C143.787720,201.056274 142.933517,209.346024 140.261414,217.234360   C137.301331,225.972824 133.502548,228.551315 124.411072,228.343185   C122.938667,228.309464 121.464836,228.338455 119.986809,228.338455   C120.420700,236.405334 127.872498,248.456558 135.349350,253.578964   C142.357819,258.380554 149.524231,258.717285 156.969009,254.762360   C161.712952,252.242233 165.829361,248.886719 170.200333,244.702362  M195.319901,188.835815   C199.388138,190.584473 201.545425,189.509415 202.955399,185.004486   C207.537384,170.364731 210.252960,155.365799 212.555557,140.255402   C213.040512,137.072998 211.549103,135.727386 208.721298,134.971497   C201.176697,132.954742 193.651855,130.859161 186.154877,128.672440   C184.187836,128.098694 182.630356,128.564270 180.960907,129.509811   C173.851349,133.536530 166.455704,136.999390 158.855179,139.965408   C156.165161,141.015152 154.892593,142.594193 154.397446,145.317505   C152.645706,154.952103 150.986481,164.612823 148.834167,174.160385   C148.050079,177.638641 149.340286,178.709396 152.175613,179.334061   C166.286972,182.442932 180.396683,185.559189 195.319901,188.835815  M265.540649,189.079437   C266.344727,186.372589 267.192413,183.677780 267.944702,180.956604   C270.159515,172.945129 272.164673,164.963882 271.554047,156.454468   C271.307556,153.019470 269.991058,151.912491 267.063873,151.108078   C254.721741,147.716278 242.451843,144.060287 230.097839,140.713943   C227.158447,139.917755 224.199783,138.454956 220.834564,139.242126   C220.598236,139.960541 220.289825,140.563614 220.207916,141.196030   C218.133041,157.217789 214.689758,172.948013 210.075226,188.420517   C209.223343,191.276932 210.297623,192.212311 212.989532,192.794281   C224.513184,195.285690 235.994049,197.974915 247.492065,200.585129   C260.500427,203.538193 260.809723,203.355621 265.172821,190.311356   C265.225616,190.153488 265.286591,189.998306 265.540649,189.079437  M155.074570,93.555809   C163.788376,89.097282 171.771133,83.109962 181.652115,81.102539   C190.708008,79.262749 200.870972,83.170280 204.824814,90.165138   C209.545074,98.515854 208.132431,107.062408 200.815796,114.791367   C198.562790,117.171333 196.418304,119.654045 193.842560,122.513260   C198.446396,123.848053 203.229004,125.011009 207.847778,126.638847   C212.176117,128.164322 213.639236,126.627876 213.671951,122.407440   C213.727524,115.238953 213.524536,108.094170 212.667160,100.970047   C210.848892,85.861870 207.886856,71.077309 200.593597,57.491837   C199.648758,55.731857 198.920929,53.600876 196.901749,52.935143   C186.458969,49.492104 176.180374,45.643959 165.396057,52.677887   C152.800781,60.892994 143.416534,71.923317 135.469254,84.393593   C131.930573,89.946236 128.690323,95.670837 126.416611,102.021431   C130.999557,104.215057 134.683670,105.021545 138.999298,102.114426   C143.806992,98.875847 149.235092,96.558266 155.074570,93.555809  M262.971588,110.466667   C252.009811,83.905487 226.796524,63.004017 209.857605,57.817287   C217.806976,76.993149 221.322433,96.878044 221.197632,124.615685   C221.177963,128.987503 222.682297,130.709290 226.717941,131.766113   C239.888275,135.215103 252.969940,139.003067 266.082306,142.672897   C271.246521,144.118240 272.523895,143.089981 271.413940,137.789551   C269.505981,128.678543 267.154999,119.679626 262.971588,110.466667  M168.637512,256.868835   C168.065308,257.570404 166.792542,257.917328 167.413040,259.232727   C194.645126,262.574493 246.785416,233.222000 253.834213,210.176270   C238.994736,206.640350 224.239899,202.899673 209.218689,200.300415   C206.544159,199.837616 205.280243,201.409698 204.386673,203.611572   C202.698349,207.771805 201.121201,211.988770 199.199371,216.040573   C191.868713,231.495819 183.184265,245.975433 168.637512,256.868835  M116.741013,243.394638   C115.036140,238.716400 113.007195,234.127686 111.685623,229.343567   C107.278595,213.390091 106.350121,196.972183 105.688560,180.540558   C105.460449,174.874908 100.162056,170.979126 94.749069,172.891922   C85.348358,176.213852 76.057892,179.846985 66.669029,183.203690   C63.907860,184.190857 63.572285,185.592758 64.661827,188.116104   C75.892387,214.126053 92.980606,234.849884 119.117393,248.461273   C118.234528,246.613037 117.619804,245.326126 116.741013,243.394638  M130.013382,77.540413   C136.994049,66.652092 145.269348,56.896408 156.189651,48.676414   C133.771317,48.254623 94.816460,70.261620 83.022972,89.835632   C93.954872,93.063950 104.732872,96.286552 115.540253,99.407440   C117.924034,100.095810 118.699028,98.115623 119.468460,96.449486   C122.401718,90.097916 125.941582,84.084343 130.013382,77.540413  M116.099510,115.581451   C118.266350,113.855400 121.212982,113.177208 122.860863,110.716911   C122.000008,109.063171 120.370033,108.900375 119.014931,108.558495   C102.575661,104.411095 86.379112,99.428215 70.140472,94.581123   C62.663055,92.349174 55.092037,90.413460 47.513271,88.547249   C44.633297,87.838089 41.273430,88.253380 40.034069,91.079720   C38.650841,94.234161 42.355206,95.031631 44.194321,96.226051   C59.959919,106.465065 75.848389,116.514694 91.653648,126.693100   C93.527870,127.900078 94.944939,128.222305 97.032089,126.911606   C103.087502,123.108902 109.329346,119.603096 116.099510,115.581451  M68.715958,122.076286   C66.216469,120.199165 64.849594,121.216431 64.082672,123.865013   C61.844521,131.594498 60.344501,139.451263 59.513466,148.319016   C68.356819,143.108826 76.910423,138.972595 85.410896,132.865097   C79.497490,129.022614 74.403290,125.712456 68.715958,122.076286  M57.764614,197.437836   C57.641266,195.134003 57.702026,192.799637 57.326668,190.537613   C57.095318,189.143433 56.454937,187.726868 54.459026,187.695755   C48.734535,187.606537 46.400322,190.704803 48.164524,196.202484   C48.517296,197.301819 48.748882,198.458954 49.243172,199.490326   C50.576302,202.271973 50.005455,207.443192 54.114464,206.987183   C58.340237,206.518204 57.570019,201.730057 57.764614,197.437836  z"/>
</svg>