<svg xmlns="http://www.w3.org/2000/svg" xmlns:xlink="http://www.w3.org/1999/xlink" version="1.1" id="Layer_1" x="0px" y="0px" width="100%" viewBox="0 0 288 288" enable-background="new 0 0 288 288" xml:space="preserve">
<path fill="#7b1fa2" opacity="1.000000" stroke="none" d=" M131.000290,272.285614   C97.674751,272.288086 64.849228,272.308899 32.023762,272.274567   C28.835733,272.271210 24.195860,273.155640 24.213316,268.525085   C24.230824,263.880829 28.942822,265.001709 32.101223,264.748505   C33.591648,264.628998 35.100796,264.659851 36.597576,264.719788   C39.849434,264.849976 41.264019,263.370514 41.812431,260.097107   C43.091133,252.464798 42.743328,244.796722 42.646847,237.156769   C42.512665,226.531311 45.135235,217.276962 52.895020,209.501572   C60.979450,201.400879 61.305965,191.168167 59.434967,180.602539   C59.000694,178.150192 58.755672,175.664307 58.367798,172.779022   C56.202988,175.628265 56.291733,178.956085 55.309891,181.874634   C52.225140,191.044159 48.485733,199.659012 38.971169,204.096451   C36.580349,205.211487 34.113922,206.284042 32.337379,203.498169   C30.439445,200.521957 32.579327,198.937241 34.982948,197.709518   C43.168316,193.528625 46.525623,185.959396 48.585400,177.717819   C53.008541,160.019974 62.269863,146.088623 78.957619,137.839600   C83.793060,135.449356 86.406479,130.782532 90.390846,127.532616   C96.242592,122.759537 103.212463,121.454399 110.360931,120.699730   C112.749001,120.447624 114.580925,120.238815 114.673187,117.197174   C115.150536,101.458382 123.047913,88.710587 131.489807,76.243172   C133.621368,73.095192 136.295670,70.314713 138.711273,67.376648   C137.099960,62.178539 133.802292,61.040279 128.895279,63.303139   C127.266602,64.054199 125.373260,64.326080 123.567551,64.575073   C121.185341,64.903572 119.192688,64.290054 118.797951,61.482540   C118.441536,58.947578 119.880730,58.007351 122.163971,57.480717   C125.238800,56.771500 128.204376,55.594238 131.273987,54.855167   C134.156906,54.161041 135.029099,52.398903 134.600494,49.705479   C134.339432,48.064957 133.879868,46.445675 133.743393,44.797482   C133.176239,37.948818 135.154495,35.055504 141.702896,33.026367   C145.833893,31.746305 149.954285,30.420921 154.124832,29.282156   C159.994690,27.679392 162.296692,28.877409 164.620422,34.465145   C168.456131,43.688534 168.453186,43.679161 178.124374,40.654690   C179.868530,40.109234 181.663986,39.727489 183.407043,39.178905   C185.763260,38.437340 187.811417,38.641716 188.774429,41.206741   C189.953781,44.348091 187.579208,45.370327 185.337677,46.174438   C181.734619,47.466980 178.069656,48.587715 174.425568,49.764744   C172.524506,50.378780 170.924759,51.311935 171.536743,53.651630   C174.414474,64.653435 170.963943,72.303078 159.082321,75.679031   C163.253464,82.921074 162.306152,90.344460 162.164398,97.614883   C161.998779,106.109489 165.469421,111.826347 173.402481,115.160049   C184.945724,120.010872 196.491821,124.651215 209.292816,124.680313   C215.411789,124.694214 216.068619,124.086418 216.656708,117.957932   C217.452499,109.664970 217.866837,101.360542 217.703186,93.024734   C217.634369,89.518982 217.490143,85.779808 221.076996,83.686028   C224.952271,81.423897 228.793747,82.899780 231.803909,85.277298   C238.172318,90.307228 245.230911,91.411270 253.158600,91.986320   C262.786011,92.684662 270.524323,98.691803 275.949707,106.515358   C279.910065,112.226311 277.429993,118.284332 271.092316,121.456421   C266.195282,123.907448 260.927765,124.346458 255.538010,124.345131   C248.547989,124.343414 247.617493,125.332344 246.154083,131.956345   C244.541077,139.257355 243.914597,146.745270 241.710403,153.935898   C235.623581,173.792511 223.641037,187.679779 202.994614,193.297989   C193.995636,195.746735 192.806427,198.343765 194.995819,207.503082   C196.983856,215.820129 200.875854,223.417511 204.056473,231.273621   C207.682007,240.228714 211.362411,249.173798 213.891434,258.487640   C215.238754,263.449493 217.765808,264.945190 222.749741,264.833344   C235.072083,264.556763 247.407089,264.828461 259.736786,264.911591   C261.566193,264.923920 263.402374,265.035004 265.220947,265.233429   C267.128265,265.441589 268.254578,266.501526 268.200409,268.538727   C268.144104,270.656830 267.201630,272.052979 264.964569,272.209045   C263.471100,272.313293 261.967468,272.292145 260.468384,272.292175   C217.479034,272.293671 174.489670,272.290771 131.000290,272.285614  M156.423523,244.798019   C155.072327,249.775284 153.619141,254.728439 152.432281,259.744598   C152.078110,261.241455 150.098099,263.545319 152.974152,264.354797   C155.795227,265.148804 156.160355,262.501007 156.424011,260.587250   C157.063171,255.947906 157.941956,251.361771 159.814087,247.074310   C166.200378,232.448822 172.490646,217.824829 179.931976,203.627563   C185.151520,193.669250 191.906021,188.039276 202.367966,185.138702   C221.638321,179.795975 231.240982,165.554214 235.728241,147.031342   C237.605286,139.283142 238.168945,131.253159 240.825912,123.670090   C242.190384,119.775887 244.653687,117.717834 248.950699,117.609413   C252.756363,117.513390 256.565002,117.001808 260.341339,116.458267   C262.968597,116.080116 265.561493,115.444572 267.716125,113.646812   C269.447723,112.202011 269.878876,110.817902 268.125092,109.080994   C263.686768,104.685432 258.853394,100.659065 252.618576,99.500526   C243.539032,97.813377 234.087616,97.690079 225.525162,90.827644   C225.074142,98.624100 224.437668,105.194588 224.366135,111.771217   C224.209824,126.141823 220.098694,139.319168 212.727158,151.498047   C206.037521,162.550278 193.170181,164.996307 182.479401,157.577774   C178.962967,155.137650 175.884857,152.207001 172.927292,148.942566   C171.222641,151.414612 171.157791,153.996384 170.335266,156.316559   C168.177505,162.403229 167.201447,168.977432 163.169556,174.295334   C159.370880,179.305618 151.606537,180.900742 145.993958,177.954788   C141.450195,175.569839 139.573349,169.731262 141.472397,163.467270   C142.677948,159.490768 143.868439,155.488678 145.435837,151.649155   C146.830811,148.231979 145.781006,146.543777 142.565582,145.135025   C135.391953,141.992126 128.340347,138.501816 122.058182,133.790680   C110.458794,125.092049 101.940109,128.045593 92.842705,136.902603   C88.365776,141.261230 83.694824,145.075272 78.183884,147.953323   C70.137375,152.155579 66.817513,159.376724 66.146744,167.944412   C65.731384,173.249771 66.202248,178.591415 66.974434,183.882019   C68.721062,195.848816 66.719147,206.758667 58.026142,215.831039   C56.420448,217.506805 55.066185,219.433167 53.675827,221.303299   C51.647243,224.031876 50.415840,227.033981 50.297142,230.521469   C49.951790,240.668137 49.501877,250.811325 49.066681,260.954773   C48.996155,262.598633 48.364578,264.514954 51.028587,264.591125   C53.645939,264.665955 53.853924,262.785614 53.875828,260.840515   C53.924580,256.510925 54.130939,252.174545 53.964844,247.852783   C53.463100,234.797806 58.007469,224.405945 68.596481,216.264740   C75.836494,210.698395 81.983040,203.787186 87.353691,196.288132   C91.179100,190.946701 93.760414,185.041595 95.787125,178.838028   C96.556084,176.484314 98.240784,175.117142 100.774071,176.044556   C103.289986,176.965576 103.717819,178.979340 102.753479,181.358978   C102.378181,182.285065 102.003319,183.211319 101.629768,184.138107   C98.551758,191.774689 98.979141,192.628967 107.014137,194.495697   C125.414856,198.770615 143.843567,199.468216 162.334686,194.991364   C168.770340,193.433212 170.476242,195.455750 169.015060,201.947815   C165.796585,216.247635 161.345413,230.172104 156.423523,244.798019  M148.509933,245.144241   C149.740982,241.181290 150.999252,237.226532 152.197342,233.253647   C154.638184,225.159744 158.131943,217.385559 159.409714,208.934692   C159.948654,205.370361 159.099380,204.165009 155.176880,204.759613   C148.631241,205.751862 142.026398,206.532791 135.354294,206.333649   C127.697342,206.105133 120.128822,205.266800 112.657089,203.564102   C109.409256,202.823975 107.107811,203.152802 107.245499,207.461472   C107.358780,211.006393 106.080978,214.440094 104.350204,217.419495   C99.391983,225.954681 99.316681,234.165924 104.119247,242.886505   C108.229065,250.349213 112.028099,258.463837 118.617271,263.484528   C123.371063,267.106781 130.871490,264.207550 137.131638,264.605713   C137.959213,264.658325 138.797867,264.545837 139.624252,264.606659   C142.679031,264.831604 144.096542,263.353516 144.707535,260.410034   C145.718231,255.540939 147.041840,250.736786 148.509933,245.144241  M148.605667,168.749069   C152.480927,172.877136 155.911575,172.527908 158.039551,167.520554   C161.031982,160.479050 163.530838,153.239136 165.273575,145.780533   C166.901474,138.813446 165.289597,135.179321 159.036255,131.657318   C153.819778,128.719315 148.431824,126.086563 143.202209,123.170815   C140.320572,121.564171 138.317856,119.042679 140.436646,115.829224   C142.430969,112.804527 144.911362,114.584396 147.365356,115.969421   C152.944031,119.117981 158.248016,122.842621 164.240280,125.108994   C167.023926,120.572968 167.121613,120.419769 163.120789,117.868767   C158.730057,115.069168 156.520737,111.160248 155.547958,106.132500   C154.394638,100.171539 154.855408,94.189064 154.704056,88.216042   C154.550476,82.155914 150.707672,78.586929 146.316330,75.407410   C144.484985,74.081444 142.852264,74.974747 141.552994,76.570564   C133.291275,86.717964 126.394562,97.631775 122.872696,110.383583   C121.386971,115.763023 122.445724,120.327103 126.751404,124.394150   C132.986786,130.283920 139.627396,135.299774 147.615860,138.653030   C154.266418,141.444656 154.798401,143.286819 153.377136,150.324051   C152.159363,156.353561 148.957291,161.812225 148.605667,168.749069  M87.318871,253.119034   C81.615379,242.947876 74.281326,233.286499 77.965195,218.988220   C68.983269,226.311386 61.110466,232.304199 61.338295,243.839096   C61.446529,249.319031 61.405762,254.806671 61.244717,260.285309   C61.152748,263.413910 62.223965,264.832855 65.532585,264.767334   C73.338409,264.612732 81.148857,264.701294 88.957253,264.657959   C90.612114,264.648773 92.370041,264.706268 93.206062,262.213043   C91.473030,259.544159 89.587715,256.640717 87.318871,253.119034  M185.477890,240.005203   C182.765350,235.591644 181.540649,230.279648 177.416946,226.190643   C173.443863,235.249115 169.574005,243.858444 165.916565,252.557098   C164.967499,254.814346 164.878830,257.420929 164.049652,259.743774   C162.599365,263.806549 164.477997,264.779480 168.072159,264.730042   C172.719101,264.666077 177.371078,264.893921 182.016129,264.787720   C186.386017,264.687836 190.853882,265.429504 195.384537,263.845032   C193.422028,255.374741 189.264297,248.169403 185.477890,240.005203  M208.476089,142.950470   C209.952362,140.043335 211.880264,137.303589 212.126144,133.508698   C209.827621,133.101028 207.745514,132.525223 205.635651,132.393127   C196.269150,131.806747 187.312820,129.568420 178.648956,126.036324   C177.042984,125.381592 175.350159,123.867599 173.813019,126.066048   C172.409073,128.073990 170.978195,129.820267 172.700439,132.746643   C175.316193,137.191193 177.823517,141.693893 181.220032,145.570129   C192.337341,158.257523 199.018875,157.721695 208.476089,142.950470  M86.647957,210.452179   C85.017715,219.215958 82.249893,228.064438 87.105766,236.638412   C92.012489,245.302170 97.201027,253.806107 102.244125,262.392975   C103.463531,264.469238 104.879250,265.256195 106.915482,263.558594   C106.995232,261.495483 105.528336,260.448517 104.633354,259.105804   C94.876190,244.467773 87.516083,229.654694 98.500443,212.140091   C101.311729,207.657471 99.296745,202.680725 97.079475,197.282150   C93.372192,201.882065 90.189835,205.830688 86.647957,210.452179  M196.646591,244.953354   C199.205429,250.206116 201.426514,255.574051 202.567139,261.346680   C203.047302,263.776733 204.135971,265.408722 207.357056,263.628448   C202.215317,244.996796 193.907410,227.677307 187.064514,209.266724   C183.108032,212.577057 181.644012,215.474533 183.920883,219.760056   C188.216843,227.845901 192.217606,236.088562 196.646591,244.953354  M154.136368,68.225876   C164.151962,67.138504 166.566757,63.677509 163.701172,53.646069   C157.531281,55.558495 151.041504,56.356789 144.532593,59.482704   C147.493851,62.916672 150.072906,65.839569 154.136368,68.225876  M147.246735,50.337292   C151.565979,48.891216 156.222290,48.317574 159.997742,45.775208   C159.966446,42.994457 158.456635,41.073944 157.787537,38.872921   C157.256607,37.126400 156.304489,36.429913 154.449463,37.052063   C150.992630,38.211437 147.435776,39.100327 144.044540,40.420338   C140.124863,41.946045 141.494766,45.126583 141.940857,48.066875   C142.405746,51.131050 144.116364,51.374847 147.246735,50.337292  z"/>
</svg>